<?xml version="1.0" encoding="UTF-8" standalone="no"?>
<!-- Created with Inkscape (http://www.inkscape.org/) -->

<svg
   sodipodi:docname="logo.svg"
   id="svg5"
   version="1.1"
   viewBox="0 0 53.61985 68.282906"
   height="70mm"
   width="70mm"
   inkscape:version="1.2.1 (9c6d41e410, 2022-07-14)"
   xmlns:inkscape="http://www.inkscape.org/namespaces/inkscape"
   xmlns:sodipodi="http://sodipodi.sourceforge.net/DTD/sodipodi-0.dtd"
   xmlns="http://www.w3.org/2000/svg"
   xmlns:svg="http://www.w3.org/2000/svg">
  <sodipodi:namedview
     id="namedview7"
     pagecolor="#ffffff"
     bordercolor="#000000"
     borderopacity="0.25"
     inkscape:showpageshadow="2"
     inkscape:pageopacity="0.0"
     inkscape:pagecheckerboard="0"
     inkscape:deskcolor="#d1d1d1"
     inkscape:document-units="mm"
     showgrid="false"
     inkscape:zoom="2"
     inkscape:cx="492.5"
     inkscape:cy="270.25"
     inkscape:window-width="1920"
     inkscape:window-height="1001"
     inkscape:window-x="-9"
     inkscape:window-y="-9"
     inkscape:window-maximized="1"
     inkscape:current-layer="layer1" />
  <defs
     id="defs2">
    <inkscape:path-effect
       effect="powerstroke"
       id="path-effect4695"
       is_visible="true"
       lpeversion="1"
       offset_points="0.2,0.70975012 | 99.306416,2.7218032 | 198.8,0.70975012"
       not_jump="false"
       sort_points="true"
       interpolator_type="CubicBezierFit"
       interpolator_beta="0.84693878"
       start_linecap_type="zerowidth"
       linejoin_type="round"
       miter_limit="4"
       scale_width="1"
       end_linecap_type="zerowidth" />
  </defs>
  <g
     inkscape:label="Layer 1"
     inkscape:groupmode="layer"
     id="layer1"
     transform="translate(-106.13932,-30.086852)">
    <circle
       style="fill:none;stroke:#000000;stroke-width:8;stroke-linecap:square;stroke-dasharray:none"
       id="path234"
       cx="132.16635"
       cy="56.11388"
       r="22.027027"
       inkscape:export-filename="path234.svg"
       inkscape:export-xdpi="96"
       inkscape:export-ydpi="96" />
    <path
       style="fill:#000000;fill-rule:nonzero;stroke:none;stroke-width:1.4195;stroke-linecap:square;stroke-dasharray:none"
       d="m 111.58956,79.923258 c 0.23697,0.04115 0.57968,0.437841 0.71105,0.123412 -0.0845,0.202217 0.28572,-0.683352 0.20124,-0.481135 0.0851,-0.203604 0.16782,-0.4019 0.25156,-0.600683 0.0854,-0.204628 0.1681,-0.402662 0.25155,-0.599879 0.0843,-0.201949 0.16827,-0.400289 0.25239,-0.600143 0.0861,-0.203714 0.16676,-0.396571 0.25094,-0.594103 0.085,-0.200874 0.16793,-0.396835 0.25164,-0.592997 0.0836,-0.197447 0.16738,-0.392407 0.25124,-0.587872 0.007,-0.01615 0.24479,-0.570254 0.25166,-0.586275 0.11809,-0.271484 0.13071,-0.301752 0.2502,-0.576921 0.0849,-0.194878 0.16681,-0.383085 0.25002,-0.571116 0.12097,-0.273813 0.13062,-0.295831 0.25162,-0.569709 0.0833,-0.187291 0.16641,-0.373665 0.2493,-0.55763 0.0844,-0.187383 0.16708,-0.370599 0.24985,-0.551666 0.0833,-0.182678 0.16673,-0.363517 0.2502,-0.544357 0.10022,-0.216791 0.15096,-0.324504 0.25107,-0.541025 0.0804,-0.170509 0.16374,-0.345465 0.24719,-0.521057 0.0823,-0.172303 0.16549,-0.344353 0.24828,-0.515078 0.0827,-0.170538 0.16534,-0.338841 0.24785,-0.505497 0.0847,-0.169507 0.16532,-0.332064 0.24703,-0.492842 0.0843,-0.166062 0.16567,-0.326257 0.24663,-0.481822 0.0836,-0.161901 0.16556,-0.318868 0.24687,-0.472145 0.0823,-0.154749 0.16412,-0.307182 0.24558,-0.457034 0.0826,-0.15163 0.16389,-0.299695 0.24454,-0.443703 0.0819,-0.146371 0.1633,-0.289942 0.24451,-0.431424 0.0812,-0.141419 0.16194,-0.279566 0.24223,-0.414716 0.0818,-0.138019 0.16195,-0.271177 0.24087,-0.399069 0.0811,-0.132816 0.16109,-0.260332 0.24191,-0.388077 0.0788,-0.12399 0.15833,-0.246217 0.23903,-0.369213 0.0782,-0.118245 0.15732,-0.235426 0.23721,-0.352373 0.0781,-0.113683 0.15593,-0.224325 0.23369,-0.332594 0.0792,-0.11125 0.15539,-0.214606 0.23086,-0.314086 0.0807,-0.108368 0.157,-0.207466 0.23196,-0.301975 0.0771,-0.09773 0.1533,-0.191709 0.22898,-0.282887 0.073,-0.08674 0.1488,-0.175047 0.22414,-0.260923 0.0727,-0.08211 0.14448,-0.160403 0.21477,-0.234114 0.0753,-0.08069 0.14686,-0.153828 0.21985,-0.226783 0.0699,-0.06926 0.13818,-0.13392 0.20492,-0.194407 0.0702,-0.06476 0.13809,-0.12414 0.21132,-0.187591 0.059,-0.04814 0.12491,-0.100791 0.19158,-0.152356 0.0631,-0.04802 0.12479,-0.09246 0.18463,-0.133104 0.0618,-0.04273 0.11988,-0.07967 0.18221,-0.118308 0.0557,-0.03323 0.11054,-0.06368 0.16346,-0.09086 a 7.10436e-4,0.00925036 58.965383 0 0 0.0107,-0.0076 c 0.0452,-0.02205 0.0949,-0.04529 0.15176,-0.0714 l -0.0122,0.0077 c 0.0573,-0.02569 0.10759,-0.04561 0.15123,-0.06007 0.0446,-0.01494 0.0863,-0.02671 0.12527,-0.03573 0.049,-0.01358 0.0862,-0.02036 0.11006,-0.02058 0.0459,-0.0086 0.0786,-0.01089 0.0964,-0.0076 a 0.00229143,0.01325297 83.143406 0 0 0.0175,-0.0052 c 0.0304,-7.41e-4 0.052,0.0023 0.0644,0.0079 a 0.00270704,0.01362893 89.132706 0 0 0.0178,-0.0038 c 0.0287,0.002 0.0528,0.0059 0.0736,0.0111 0.0222,0.005 0.0425,0.01108 0.0635,0.01783 0.0183,0.0071 0.0379,0.01459 0.0578,0.02309 0.0329,0.009 0.05,0.01854 0.0491,0.02634 0.037,0.01222 0.0545,0.02311 0.0581,0.03172 a 0.0126359,0.00545399 34.458946 0 0 0.0187,0.0037 c 0.008,0.0092 0.0289,0.02182 0.0612,0.03853 0.0215,0.01375 0.0439,0.02894 0.0664,0.04489 l -0.019,-0.0069 c 0.0486,0.02606 0.0777,0.04584 0.0939,0.06124 0.026,0.01971 0.0607,0.04451 0.10004,0.0731 0.0176,0.01707 0.0534,0.0459 0.0954,0.07934 0.0337,0.02904 0.0727,0.06211 0.11776,0.101233 l -0.014,-0.0095 c 0.0465,0.04056 0.0886,0.07958 0.12765,0.118072 l -0.0103,-0.0078 c 0.0545,0.05083 0.0981,0.09447 0.13586,0.135369 a 0.00838539,5.4381717e-4 43.636015 0 0 0.009,0.0076 c 0.0297,0.03236 0.0909,0.0975 0.14376,0.153587 l -0.0109,-0.0099 c 0.0463,0.0519 0.0955,0.108101 0.14968,0.171225 0.0539,0.06289 0.10254,0.122264 0.14798,0.180715 a 0.00786408,3.3870372e-4 49.340915 0 0 0.008,0.0081 c 0.0504,0.06335 0.10341,0.131482 0.16119,0.207008 0.0524,0.06953 0.10749,0.144181 0.16505,0.223891 0.0588,0.08125 0.11535,0.161543 0.17028,0.242212 0.0599,0.08706 0.11773,0.17337 0.17475,0.261006 0.0624,0.09451 0.12193,0.187326 0.183,0.284377 0.0586,0.09381 0.12026,0.194159 0.18507,0.300726 0.0595,0.09888 0.12108,0.203105 0.18384,0.311246 0.0645,0.110214 0.12629,0.218803 0.18939,0.331585 0.0658,0.116405 0.1284,0.230188 0.19232,0.348308 0.0665,0.121742 0.13062,0.241947 0.19762,0.368647 0.0639,0.121746 0.12962,0.248613 0.19572,0.37778 0.0656,0.12852 0.13237,0.260879 0.20002,0.396302 0.066,0.132427 0.1322,0.267252 0.19908,0.40526 0.0677,0.139242 0.13419,0.278328 0.20503,0.426799 0.0665,0.14078 0.13527,0.287188 0.20333,0.43365 0.0674,0.145983 0.13652,0.296336 0.2049,0.446823 0.07,0.153955 0.13872,0.306089 0.20658,0.458636 0.0703,0.157482 0.14041,0.315783 0.21096,0.475938 0.068,0.155682 0.13821,0.317046 0.20802,0.478944 0.0708,0.163313 0.14025,0.325872 0.21088,0.492174 0.0715,0.167261 0.14113,0.332775 0.21327,0.504431 0.0712,0.169495 0.14256,0.340465 0.2141,0.512617 -0.0691,-0.166699 0.28262,0.684053 0.21545,0.52175 0.0706,0.172208 0.14228,0.347893 0.21409,0.524856 0.0733,0.179566 0.1449,0.356767 0.21811,0.538108 0.0728,0.181104 0.14483,0.36021 0.21727,0.541445 0.0737,0.183446 0.14588,0.364636 0.21959,0.549928 0.0376,0.0944 0.18395,0.463315 0.22126,0.557042 -0.38487,-0.973958 0.60307,1.52686 0.21991,0.557136 0.0212,0.05347 0.20363,0.516545 0.2231,0.565751 -0.0106,-0.02694 0.23368,0.594723 0.22376,0.569462 0.0774,0.197809 0.1439,0.366731 0.223,0.568853 0.0888,0.226207 0.13865,0.352762 0.22636,0.576177 -0.42137,-1.07418 0.64807,1.651716 0.22688,0.577991 0.0478,0.121867 0.17729,0.450317 0.2264,0.575602 0.0446,0.113587 0.18375,0.464933 0.22874,0.579488 0.0429,0.108922 0.18554,0.468067 0.22906,0.578516 1.12876,2.839034 -0.89613,-2.254236 0.23133,0.581518 0.0416,0.104413 0.18801,0.469234 0.23031,0.575456 0.0784,0.195002 0.15597,0.387641 0.23384,0.57999 0.0773,0.191179 0.1553,0.383094 0.2329,0.57346 0.0786,0.192771 0.15689,0.383381 0.23437,0.571769 0.0783,0.189567 0.15699,0.380181 0.2359,0.569953 0.0785,0.187753 0.15746,0.376905 0.23654,0.564906 0.0786,0.18666 0.15833,0.375395 0.23889,0.563935 0.0774,0.182281 0.15783,0.369858 0.23807,0.555368 0.0791,0.182983 0.15925,0.367177 0.23986,0.550753 0.0793,0.181177 0.1597,0.363011 0.23936,0.542154 0.0817,0.183115 0.16173,0.36105 0.24184,0.538215 0.0814,0.179038 0.16239,0.356714 0.24435,0.53427 0.0798,0.172873 0.16191,0.349776 0.24506,0.526177 0.0794,0.168871 0.16202,0.343247 0.24564,0.516913 0.08,0.166856 0.1624,0.336524 0.24443,0.503848 0.0831,0.168692 0.16486,0.333551 0.24731,0.49807 0.085,0.169267 0.16809,0.332037 0.25092,0.492642 0.0831,0.162176 0.16759,0.323452 0.24919,0.477889 0.0853,0.161412 0.16916,0.317533 0.25247,0.470878 0.0836,0.153296 0.1691,0.309001 0.25629,0.464434 0.0824,0.147177 0.16823,0.298197 0.25501,0.448096 0.0839,0.144536 0.16912,0.289822 0.25553,0.434575 0.087,0.145759 0.17296,0.286755 0.25754,0.423645 0.0882,0.14246 0.17605,0.282102 0.26575,0.42137 0.0838,0.13027 0.17323,0.267249 0.2645,0.403326 0.0839,0.12518 0.17401,0.257606 0.26602,0.389154 0.0836,0.119242 0.17454,0.247606 0.26863,0.376481 0.0861,0.117159 0.17667,0.238895 0.26982,0.360725 0.0912,0.1194 0.18474,0.238377 0.27857,0.354346 0.0897,0.111095 0.18301,0.223646 0.27646,0.333259 0.0957,0.112464 0.19063,0.220352 0.28571,0.325214 0.0923,0.101463 0.18896,0.205631 0.28954,0.310037 0.0965,0.100602 0.19704,0.200983 0.29504,0.295343 l -0.007,-0.0079 c 0.10514,0.103014 0.20785,0.19834 0.30739,0.287219 0.0974,0.08695 0.19957,0.175388 0.30518,0.26282 a 0.01143405,3.0508066e-4 40.767792 0 0 0.0118,0.01078 c 0.0878,0.07042 0.19706,0.157834 0.31247,0.244883 l -0.0135,-0.01127 c 0.11677,0.08951 0.2261,0.166383 0.32154,0.230798 a 0.00984074,2.8025102e-4 35.726237 0 0 0.011,0.0084 c 0.11113,0.07544 0.22095,0.145406 0.32919,0.210684 a 0.013009,3.7894086e-4 32.457356 0 0 0.0152,0.01027 c 0.10054,0.05903 0.21328,0.123392 0.33373,0.187304 0.10879,0.05722 0.23001,0.117728 0.35809,0.175827 0.1157,0.05183 0.23471,0.10091 0.35448,0.145946 0.1283,0.04837 0.25135,0.08976 0.37621,0.126925 a 0.00768357,2.2120195e-4 18.107087 0 0 0.0102,0.0037 c 0.12616,0.03697 0.2516,0.06876 0.3772,0.09578 a 0.00961879,3.0142466e-4 13.581564 0 0 0.013,0.0036 c 0.10792,0.02165 0.24373,0.0476 0.39317,0.06814 l -0.0361,-0.0072 c 0.16282,0.02614 0.30253,0.03599 0.39252,0.03985 0.16432,0.01313 0.31149,0.01286 0.43062,0.0083 l -0.0446,-0.0017 c 0.17763,0.0012 0.32724,-0.01365 0.41538,-0.02494 a 4.8967227e-4,0.01321158 85.109654 0 0 0.0186,-9e-4 c 0.11878,-0.01408 0.25357,-0.0333 0.39708,-0.0614 0.11654,-0.0238 0.24504,-0.05428 0.37563,-0.09136 l -0.0192,0.0042 c 0.13616,-0.03679 0.25968,-0.07807 0.36789,-0.118141 a 4.5128842e-4,0.01372002 71.516652 0 0 0.0186,-0.0055 c 0.12236,-0.04555 0.23716,-0.09422 0.34463,-0.143796 0.12449,-0.05547 0.24013,-0.115177 0.33811,-0.16921 0.11632,-0.06299 0.22432,-0.12687 0.33024,-0.194044 0.11077,-0.07007 0.21032,-0.138854 0.30223,-0.205409 a 5.3824125e-4,0.0149992 55.894072 0 0 0.0179,-0.01123 c 0.0936,-0.06914 0.19237,-0.144615 0.29469,-0.22775 0.091,-0.07434 0.18896,-0.157846 0.28632,-0.245727 0.083,-0.0763 0.17957,-0.165904 0.27984,-0.265092 l -0.01,0.0083 c 0.0886,-0.08776 0.17959,-0.181195 0.27119,-0.28005 0.0824,-0.0894 0.16882,-0.186205 0.25515,-0.286954 0.0826,-0.09695 0.16769,-0.199241 0.2548,-0.308797 l -0.0114,0.01252 c 0.0887,-0.109049 0.1721,-0.217853 0.25091,-0.323779 0.0816,-0.109989 0.15939,-0.217946 0.23815,-0.330166 0.0795,-0.112924 0.15746,-0.227793 0.23403,-0.343437 0.0769,-0.116726 0.15314,-0.234654 0.23016,-0.357024 0.0753,-0.120832 0.15151,-0.244741 0.22837,-0.373437 0.073,-0.122795 0.14833,-0.251612 0.22363,-0.38403 0.0707,-0.124162 0.14628,-0.258877 0.22219,-0.398635 l -0.006,0.0089 c 0.0752,-0.13646 0.14915,-0.274736 0.22267,-0.415764 0.071,-0.134627 0.14441,-0.278332 0.21563,-0.420412 0.0701,-0.139003 0.14145,-0.283103 0.2131,-0.430171 0.0718,-0.148258 0.14189,-0.295158 0.213,-0.446197 0.0719,-0.152603 0.14207,-0.305802 0.21044,-0.455628 0.0707,-0.15533 0.14184,-0.313243 0.21311,-0.474964 0.0676,-0.154009 0.13831,-0.315534 0.20898,-0.48038 0.0677,-0.15879 0.13796,-0.323902 0.20797,-0.491484 0.0684,-0.163028 0.13794,-0.33118 0.20764,-0.502469 0.0691,-0.168194 0.13853,-0.341584 0.20698,-0.514426 0.0683,-0.16886 0.13826,-0.348644 0.20456,-0.518389 0.07,-0.177986 0.13898,-0.359069 0.20502,-0.531245 0.0315,-0.08223 0.17603,-0.465466 0.20485,-0.541608 0.0699,-0.186281 0.13787,-0.371575 0.20436,-0.551166 0.0671,-0.182796 0.13756,-0.373989 0.20575,-0.562722 0.0654,-0.181512 0.13629,-0.376684 0.20481,-0.571317 0.0644,-0.181437 0.13316,-0.374292 0.20138,-0.568437 0.0667,-0.190003 0.13514,-0.384931 0.20312,-0.581238 0.0675,-0.193254 0.13514,-0.390422 0.20194,-0.585154 0.0681,-0.197157 0.13572,-0.39766 0.20204,-0.592479 0.0679,-0.199123 0.13524,-0.399106 0.20266,-0.599659 0.0555,-0.164737 0.14516,-0.435349 0.20069,-0.600152 0.0669,-0.201898 0.13538,-0.404969 0.20379,-0.613925 0.065,-0.196506 0.13337,-0.402652 0.20076,-0.608993 0.58846,-1.798834 -0.38893,1.189217 0.19977,-0.610275 0.0673,-0.2056 0.13511,-0.412842 0.20234,-0.620382 0.0671,-0.204887 0.13371,-0.411829 0.20046,-0.617687 0.0674,-0.205763 0.1343,-0.413554 0.20129,-0.621596 0.067,-0.204581 0.13388,-0.412297 0.20098,-0.620132 -0.33353,1.035337 0.49378,-1.532281 0.16012,-0.496567 0.10432,-0.322586 -0.41351,-0.245842 -0.62011,-0.369077 -0.2367,-0.04148 -0.57902,-0.439394 -0.71102,-0.123966 -0.0378,0.09025 -0.16378,0.392403 -0.20154,0.482658 -0.0848,0.202818 -0.16722,0.400431 -0.25106,0.598175 -0.0858,0.206118 -0.16841,0.404089 -0.25186,0.600996 -0.0862,0.205474 -0.16789,0.401202 -0.2518,0.599196 -0.0842,0.201015 -0.16817,0.39932 -0.25181,0.596988 -0.0446,0.104458 -0.20636,0.487004 -0.25169,0.593454 -0.0829,0.19594 -0.16678,0.391412 -0.2503,0.585901 -0.0831,0.196084 -0.16734,0.389804 -0.25167,0.586591 -0.11395,0.261833 -0.13441,0.31057 -0.24995,0.576565 -0.0845,0.194214 -0.16737,0.38425 -0.25026,0.571953 -0.086,0.195173 -0.16717,0.380625 -0.25041,0.566914 -0.0849,0.190971 -0.16696,0.375621 -0.24974,0.558369 -0.084,0.187366 -0.16741,0.371094 -0.25075,0.554176 -0.0829,0.182125 -0.16644,0.363297 -0.24949,0.542816 -0.083,0.182222 -0.16506,0.356714 -0.24941,0.537266 -0.0822,0.175412 -0.16507,0.349159 -0.24888,0.525626 -0.085,0.176841 -0.16567,0.346128 -0.24825,0.516334 -0.0828,0.168737 -0.16587,0.338587 -0.24861,0.50686 -0.084,0.168064 -0.16393,0.329633 -0.24516,0.488782 -0.0861,0.169923 -0.16554,0.326846 -0.24561,0.47866 -0.0864,0.168724 -0.16705,0.32356 -0.24752,0.474058 -0.0834,0.158055 -0.16459,0.308995 -0.24593,0.457977 -0.0823,0.151844 -0.16436,0.300262 -0.24655,0.448304 -0.08,0.14328 -0.16131,0.286031 -0.24352,0.429771 -0.0801,0.139493 -0.16098,0.277417 -0.24247,0.415311 -0.082,0.137407 -0.16212,0.271348 -0.24102,0.399669 -0.0806,0.131187 -0.16125,0.260431 -0.2417,0.387987 -0.0785,0.122901 -0.15764,0.244889 -0.23659,0.364116 -0.0826,0.126343 -0.15956,0.241 -0.2351,0.349286 -0.0827,0.1219 -0.15931,0.23073 -0.23553,0.335933 a 2.5113352e-4,0.00743529 33.809598 0 0 -0.006,0.0089 c -0.0753,0.105195 -0.15144,0.208366 -0.22797,0.309682 -0.0792,0.106109 -0.15585,0.205555 -0.23216,0.302323 -0.075,0.09489 -0.15115,0.188441 -0.23014,0.284717 -0.0701,0.08275 -0.14586,0.170903 -0.22272,0.258963 -0.0725,0.08145 -0.14513,0.161089 -0.21542,0.235052 -0.0743,0.07897 -0.14739,0.154188 -0.22029,0.227377 -0.0695,0.06838 -0.1366,0.132042 -0.1996,0.187956 a 5.9934641e-4,0.01198964 45.15095 0 0 -0.0114,0.01252 c -0.0641,0.05837 -0.13025,0.116004 -0.19976,0.175251 -0.0643,0.05374 -0.12884,0.10516 -0.19321,0.154374 -0.0645,0.04956 -0.12558,0.09339 -0.18733,0.135724 a 5.6488213e-4,0.0089422 52.536471 0 0 -0.01,0.0083 c -0.0522,0.03408 -0.10559,0.06791 -0.17405,0.111172 -0.0541,0.03213 -0.10814,0.06201 -0.16122,0.08928 -0.0567,0.03012 -0.10954,0.05529 -0.16582,0.08126 l 0.0179,-0.01123 c -0.0608,0.02774 -0.11236,0.04846 -0.15603,0.06298 -0.0428,0.01388 -0.0859,0.02632 -0.12561,0.03579 -0.0483,0.0131 -0.0854,0.01979 -0.10625,0.01883 -0.0496,0.01008 -0.0855,0.01374 -0.11502,0.01426 l 0.0186,-0.0055 c -0.043,0.0041 -0.0715,0.0028 -0.0865,-0.0023 a 0.0137659,0.00316609 0.77831061 0 0 -0.0192,0.0042 c -0.0218,-0.0038 -0.0491,-0.008 -0.0709,-0.01188 -0.0148,-0.0059 -0.0352,-0.01171 -0.0654,-0.01794 l 0.0186,-9e-4 c -0.0546,-0.0051 -0.0756,-0.01447 -0.0392,-0.02114 l -0.0446,-0.0017 c -0.0326,-0.0087 -0.0387,-0.01808 -0.0227,-0.02383 -0.0594,-0.01527 -0.0807,-0.02717 -0.0634,-0.03186 l -0.0361,-0.0072 c -0.001,-0.008 -0.0213,-0.02001 -0.0628,-0.03918 l 0.013,0.0036 c -0.0261,-0.01506 -0.0517,-0.03135 -0.0776,-0.04842 l 0.0102,0.0037 c -0.0268,-0.01762 -0.0555,-0.03732 -0.0855,-0.05853 -0.0256,-0.01965 -0.0587,-0.04358 -0.0922,-0.0693 -0.0237,-0.02009 -0.0587,-0.04882 -0.0949,-0.07881 -0.0323,-0.02732 -0.0776,-0.06574 -0.12515,-0.105916 l 0.0152,0.01027 c -0.0442,-0.03896 -0.086,-0.07778 -0.12611,-0.117028 l 0.011,0.0084 c -0.0571,-0.05288 -0.0993,-0.09538 -0.1338,-0.133668 a 0.0124046,8.5978622e-4 43.911849 0 0 -0.0135,-0.01127 c -0.0294,-0.03236 -0.0872,-0.09401 -0.14309,-0.153057 l 0.0119,0.01078 c -0.0469,-0.05241 -0.0964,-0.108979 -0.14977,-0.171315 -0.0536,-0.06257 -0.10238,-0.12215 -0.14874,-0.18156 a 0.00767114,3.1319714e-4 49.201145 0 0 -0.007,-0.0079 c -0.0546,-0.06774 -0.10553,-0.133454 -0.15439,-0.199312 -0.0583,-0.07631 -0.11297,-0.150495 -0.17322,-0.233378 -0.0565,-0.07847 -0.11334,-0.159233 -0.16979,-0.241756 -0.0584,-0.08517 -0.11677,-0.172328 -0.17489,-0.261341 -0.0625,-0.09454 -0.12132,-0.1863 -0.17977,-0.279935 -0.0608,-0.0969 -0.12199,-0.196619 -0.18706,-0.303635 -0.0589,-0.09799 -0.11944,-0.200775 -0.18513,-0.313354 -0.0631,-0.108191 -0.12501,-0.216915 -0.18858,-0.330438 -0.0653,-0.115679 -0.12788,-0.229464 -0.19203,-0.347981 -0.0664,-0.121639 -0.13067,-0.242125 -0.19729,-0.368258 -0.0647,-0.12354 -0.13072,-0.250558 -0.19553,-0.377571 -0.0658,-0.128909 -0.13266,-0.261563 -0.20066,-0.397602 -0.0656,-0.13172 -0.1318,-0.266651 -0.19857,-0.404503 -0.068,-0.139674 -0.13445,-0.278807 -0.20463,-0.426167 -0.0672,-0.142171 -0.13559,-0.287739 -0.20301,-0.433194 -0.0699,-0.151026 -0.13717,-0.296996 -0.20317,-0.443433 -0.0725,-0.159002 -0.14176,-0.312346 -0.21032,-0.465905 -0.068,-0.153141 -0.13847,-0.312597 -0.20951,-0.473846 -0.0682,-0.155976 -0.13808,-0.316753 -0.20728,-0.477593 -0.0713,-0.164654 -0.14086,-0.327346 -0.21126,-0.493231 -0.0715,-0.167562 -0.14163,-0.334022 -0.21288,-0.503894 -0.0713,-0.16972 -0.14216,-0.339972 -0.21517,-0.515266 -0.0702,-0.169777 -0.14239,-0.344665 -0.21441,-0.519715 -0.0711,-0.17375 -0.14273,-0.34903 -0.21398,-0.524852 -0.0733,-0.179962 -0.14547,-0.358377 -0.21803,-0.538272 -0.0726,-0.179833 -0.14466,-0.35948 -0.21615,-0.539045 -0.0747,-0.185942 -0.14693,-0.367522 -0.22083,-0.553248 -0.0855,-0.215098 -0.13582,-0.342377 -0.22159,-0.558167 -0.0769,-0.194558 -0.14211,-0.36015 -0.22073,-0.558943 -0.24612,-0.625247 0.0266,0.06749 -0.22112,-0.561773 0.23192,0.590431 -0.45483,-1.158238 -0.2231,-0.568264 -0.0399,-0.101668 -0.18532,-0.472358 -0.22474,-0.572741 -0.0628,-0.160747 -0.16039,-0.408672 -0.22448,-0.572609 -0.22577,-0.575494 -0.002,-0.0061 -0.22747,-0.579819 -0.0599,-0.152891 -0.16462,-0.418369 -0.22582,-0.574531 -0.0634,-0.161158 -0.1656,-0.419286 -0.22838,-0.578917 -0.0472,-0.119741 -0.18258,-0.461 -0.22941,-0.579773 0.32207,0.810766 -0.55449,-1.395446 -0.23107,-0.581253 -0.0777,-0.194844 -0.15507,-0.387695 -0.2317,-0.578522 -0.077,-0.192291 -0.15538,-0.386387 -0.23094,-0.573899 0.001,0.0034 -0.23717,-0.584337 -0.23406,-0.576649 -0.0785,-0.192512 -0.15687,-0.383893 -0.23604,-0.575703 -0.0771,-0.18773 -0.15589,-0.377911 -0.23355,-0.565068 -0.0793,-0.190185 -0.15803,-0.378744 -0.2374,-0.567398 -0.0781,-0.185684 -0.15796,-0.374854 -0.23878,-0.563966 -0.078,-0.183316 -0.15746,-0.368298 -0.2358,-0.55029 -0.0804,-0.18624 -0.16084,-0.371457 -0.24223,-0.556686 -0.0781,-0.17854 -0.15845,-0.360624 -0.23925,-0.542232 -0.0814,-0.182422 -0.16137,-0.360098 -0.24067,-0.535704 -0.0821,-0.181234 -0.16308,-0.358492 -0.24454,-0.535087 -0.0795,-0.172244 -0.16183,-0.349875 -0.24549,-0.527327 -0.0789,-0.167821 -0.16151,-0.342341 -0.24525,-0.51634 -0.0801,-0.166784 -0.1621,-0.335926 -0.24402,-0.503193 -0.0837,-0.170149 -0.16607,-0.336077 -0.24891,-0.500948 -0.083,-0.165718 -0.16652,-0.329463 -0.24892,-0.489449 -0.0833,-0.161954 -0.16649,-0.321225 -0.24912,-0.477958 -0.086,-0.162724 -0.16942,-0.318026 -0.25246,-0.47103 -0.084,-0.154035 -0.16934,-0.309535 -0.25625,-0.464624 -0.0828,-0.147881 -0.16859,-0.299028 -0.25557,-0.449279 -0.0835,-0.144082 -0.16894,-0.289692 -0.25546,-0.434645 -0.0858,-0.14357 -0.17175,-0.285135 -0.25876,-0.425909 -0.0866,-0.139645 -0.17452,-0.279552 -0.26447,-0.419247 -0.0836,-0.130118 -0.17313,-0.26714 -0.26424,-0.402999 -0.0839,-0.125355 -0.17415,-0.257927 -0.26602,-0.389294 -0.085,-0.121581 -0.17552,-0.248924 -0.26749,-0.374883 -0.0876,-0.119356 -0.17781,-0.240561 -0.27033,-0.361633 -0.0917,-0.119755 -0.18424,-0.237679 -0.27852,-0.354391 -0.0901,-0.111897 -0.18417,-0.225343 -0.27783,-0.335154 -0.0954,-0.112276 -0.19082,-0.220521 -0.28466,-0.323953 -0.0935,-0.103193 -0.19037,-0.207295 -0.28976,-0.310358 -0.0944,-0.09739 -0.19288,-0.196553 -0.29507,-0.295453 l 0.008,0.0081 c -0.10599,-0.104 -0.20902,-0.199492 -0.30755,-0.287432 -0.0973,-0.08687 -0.19958,-0.175488 -0.30585,-0.263516 a 0.01048342,2.7670528e-4 40.791939 0 0 -0.0109,-0.0099 c -0.09,-0.07241 -0.1976,-0.158312 -0.31168,-0.244371 l 0.009,0.0076 c -0.11361,-0.08652 -0.22134,-0.162559 -0.31962,-0.229071 a 0.00913251,2.5512318e-4 35.745991 0 0 -0.0103,-0.0078 c -0.11209,-0.07618 -0.22162,-0.145746 -0.32765,-0.209662 a 0.01199356,3.4532655e-4 32.54815 0 0 -0.014,-0.0095 c -0.10677,-0.06338 -0.21857,-0.126645 -0.3344,-0.187922 -0.10981,-0.05756 -0.23084,-0.118298 -0.36097,-0.177479 -0.11313,-0.05025 -0.23138,-0.09951 -0.35507,-0.14625 -0.13643,-0.05232 -0.25945,-0.09178 -0.363,-0.122019 a 0.01433356,4.4973942e-4 18.200256 0 0 -0.0191,-0.0069 c -0.12855,-0.03812 -0.25757,-0.07103 -0.38741,-0.09886 -0.11867,-0.02482 -0.2517,-0.04958 -0.39506,-0.06927 l 0.0187,0.0037 c -0.14694,-0.02178 -0.2817,-0.03319 -0.39894,-0.03913 -0.14886,-0.0099 -0.28471,-0.0097 -0.39818,-0.0058 -0.1364,0.0035 -0.26871,0.01249 -0.40146,0.02727 -0.13063,0.01466 -0.26222,0.03476 -0.39499,0.06107 -0.12721,0.02528 -0.25416,0.05623 -0.37803,0.09165 l 0.0178,-0.0038 c -0.13825,0.03713 -0.26854,0.08002 -0.39021,0.125532 l 0.0175,-0.0052 c -0.13227,0.04726 -0.25243,0.0982 -0.35746,0.14656 -0.12702,0.05666 -0.24275,0.116015 -0.34519,0.172449 -0.11165,0.06068 -0.22127,0.125352 -0.32869,0.193556 -0.10719,0.06798 -0.20837,0.137542 -0.30306,0.206101 a 3.6216683e-4,0.01022783 55.917731 0 0 -0.0123,0.0077 c -0.0937,0.06895 -0.19599,0.146462 -0.30243,0.233051 l 0.0107,-0.0076 c -0.0978,0.0792 -0.19444,0.161922 -0.28992,0.248048 -0.0889,0.08095 -0.18267,0.168711 -0.2794,0.264488 -0.084,0.08371 -0.17368,0.176453 -0.26233,0.272177 -0.0843,0.09157 -0.16992,0.187324 -0.25648,0.288104 -0.0832,0.09812 -0.16724,0.199141 -0.25379,0.307593 -0.0789,0.09908 -0.16189,0.206653 -0.24399,0.317006 -0.0774,0.104603 -0.15755,0.215147 -0.23885,0.33124 -0.0753,0.107345 -0.15468,0.223744 -0.2332,0.342542 -0.0757,0.115099 -0.15137,0.232568 -0.22723,0.353187 -0.0779,0.124117 -0.15301,0.24705 -0.22806,0.37288 -0.075,0.125484 -0.15007,0.25444 -0.2243,0.385111 -0.0718,0.125717 -0.1469,0.260072 -0.2218,0.397895 -0.0702,0.129199 -0.14337,0.265894 -0.217,0.406714 -0.0706,0.135631 -0.14284,0.275809 -0.21587,0.420723 -0.07,0.139666 -0.1421,0.28464 -0.21487,0.434427 -0.0693,0.143363 -0.14091,0.29254 -0.21312,0.44646 -0.0698,0.148262 -0.1407,0.302172 -0.21053,0.45581 -0.0701,0.154027 -0.14048,0.311047 -0.21096,0.470973 -0.0692,0.157053 -0.13864,0.316703 -0.20852,0.47936 -0.07,0.162844 -0.1394,0.327258 -0.20827,0.491987 -0.0694,0.165906 -0.13803,0.332456 -0.20715,0.501582 -0.0697,0.170789 -0.13868,0.342424 -0.20741,0.515231 -0.0688,0.172172 -0.13769,0.34844 -0.20493,0.520609 -0.0697,0.177937 -0.13835,0.358039 -0.20454,0.530408 -0.0697,0.182249 -0.1384,0.36364 -0.20711,0.54765 -0.0665,0.178221 -0.13523,0.362674 -0.20388,0.549227 -0.0661,0.180655 -0.13568,0.369928 -0.20384,0.558197 -0.052,0.145749 -0.1534,0.42698 -0.20321,0.567505 -0.0665,0.186904 -0.13502,0.379361 -0.20315,0.573114 -0.0677,0.192064 -0.13513,0.386056 -0.20248,0.579837 -0.0678,0.195113 -0.13538,0.391331 -0.20294,0.588621 0.0303,-0.0892 -0.23207,0.681286 -0.20119,0.590532 -0.0686,0.20045 -0.13554,0.400364 -0.20256,0.599713 -0.0537,0.159578 -0.14741,0.441874 -0.20089,0.60092 -0.0894,0.269376 -0.11413,0.344054 -0.2021,0.609727 -0.0665,0.200856 -0.13473,0.406437 -0.20211,0.612571 -0.0668,0.202988 -0.13361,0.407667 -0.20055,0.612614 -0.0678,0.205935 -0.13414,0.411858 -0.2008,0.616309 -0.0667,0.205249 -0.13428,0.411745 -0.20193,0.621594 -0.0665,0.204045 -0.13336,0.411703 -0.20037,0.619412 -0.0669,0.205877 -0.13346,0.412767 -0.20054,0.620701 -0.0212,0.06548 -0.13905,0.431176 -0.16045,0.497272 -0.10427,0.323484 0.41372,0.245526 0.62053,0.368399 z"
       title="2 *sin(x)"
       id="path3592"
       inkscape:path-effect="#path-effect4695"
       inkscape:original-d="m 111.58956,79.923258 c 0.0755,-0.204276 0.15056,-0.407872 0.22622,-0.612006 0.0755,-0.204267 0.15056,-0.407884 0.22624,-0.6112 0.0755,-0.204265 0.15057,-0.407915 0.22624,-0.610396 0.0751,-0.203591 0.15093,-0.406116 0.22638,-0.608778 0.0757,-0.202484 0.15044,-0.404737 0.22631,-0.606386 0.0753,-0.201151 0.15049,-0.402296 0.22625,-0.603215 0.075,-0.200495 0.15066,-0.399845 0.2263,-0.59922 0.0756,-0.199363 0.151,-0.398081 0.22615,-0.596085 0.0757,-0.196907 0.15069,-0.394291 0.22615,-0.590514 0.0756,-0.196242 0.15044,-0.391187 0.22638,-0.585639 0.0757,-0.193796 0.15126,-0.387566 0.22611,-0.579379 0.0754,-0.192282 0.15083,-0.383781 0.22633,-0.57367 0.0756,-0.18988 0.15087,-0.378986 0.22644,-0.566433 0.0754,-0.187522 0.15109,-0.373311 0.22655,-0.558419 0.0754,-0.185103 0.15132,-0.368419 0.22601,-0.551518 0.0753,-0.181951 0.15133,-0.362845 0.22639,-0.541759 0.0755,-0.179507 0.15128,-0.357256 0.22642,-0.532965 0.0753,-0.176382 0.1509,-0.351056 0.22644,-0.524178 0.0759,-0.172174 0.15089,-0.343884 0.22639,-0.51303 0.0757,-0.169058 0.15098,-0.337465 0.22643,-0.502652 0.0755,-0.1659 0.151,-0.33031 0.22648,-0.492254 0.0757,-0.161936 0.151,-0.321532 0.22645,-0.479505 0.0756,-0.15797 0.15103,-0.314357 0.22662,-0.468294 0.0756,-0.153951 0.15104,-0.305544 0.22658,-0.455524 0.0755,-0.149978 0.15104,-0.297569 0.22656,-0.442774 0.0755,-0.145195 0.15105,-0.288783 0.22663,-0.429169 0.0755,-0.141206 0.15111,-0.279231 0.22664,-0.415628 0.0755,-0.136415 0.15113,-0.269635 0.22663,-0.401262 0.0756,-0.131602 0.15116,-0.260057 0.22674,-0.386897 0.0756,-0.126842 0.15109,-0.250486 0.22664,-0.371747 0.0755,-0.122034 0.15113,-0.240905 0.22676,-0.356556 0.0755,-0.116468 0.15115,-0.230508 0.22674,-0.341388 0.0755,-0.110908 0.15112,-0.219368 0.22678,-0.325432 0.0756,-0.105286 0.15128,-0.208164 0.22683,-0.308673 0.0756,-0.100447 0.1512,-0.197817 0.22682,-0.291901 0.0755,-0.09489 0.15129,-0.186637 0.22692,-0.275958 0.0756,-0.08932 0.15122,-0.17546 0.22689,-0.258382 0.0757,-0.0837 0.1513,-0.163462 0.22694,-0.24163 0.0756,-0.07733 0.15126,-0.151509 0.22696,-0.223261 0.0757,-0.07172 0.15141,-0.140318 0.22698,-0.20569 0.0757,-0.06615 0.1514,-0.128362 0.22703,-0.18815 0.0757,-0.05977 0.15145,-0.116369 0.22711,-0.169785 0.0756,-0.05419 0.15139,-0.104408 0.2271,-0.152227 0.0757,-0.04699 0.15137,-0.09163 0.22713,-0.133075 0.0757,-0.04141 0.1514,-0.07966 0.22712,-0.114712 0.0756,-0.03501 0.15145,-0.06768 0.2272,-0.09634 0.0758,-0.02865 0.15153,-0.05492 0.22721,-0.07719 0.0758,-0.02308 0.15156,-0.04295 0.22728,-0.05882 0.0759,-0.01664 0.15156,-0.03019 0.22733,-0.04048 0.0757,-0.0104 0.15154,-0.01745 0.22731,-0.02139 0.0756,-0.0039 0.15157,-0.0046 0.22738,-0.0022 0.0759,0.0026 0.15157,0.0073 0.22737,0.01627 0.0759,0.0089 0.15166,0.02006 0.22742,0.0353 0.0758,0.01453 0.15167,0.0329 0.22746,0.05372 0.076,0.02093 0.1517,0.04485 0.22756,0.07205 0.0759,0.02803 0.15165,0.05764 0.22752,0.09122 0.0757,0.03359 0.15168,0.0704 0.22755,0.109606 0.0757,0.03921 0.15168,0.08243 0.22757,0.127966 0.0757,0.04559 0.15171,0.09434 0.22762,0.145502 0.0759,0.052 0.15179,0.106325 0.22765,0.163867 0.076,0.05834 0.15182,0.118346 0.22774,0.18222 0.0758,0.0631 0.15177,0.130305 0.22772,0.198979 0.0759,0.06952 0.15181,0.142234 0.22773,0.217338 0.0759,0.07509 0.15184,0.152616 0.2278,0.234106 0.0759,0.08065 0.15183,0.164587 0.22781,0.250866 0.0759,0.08626 0.15191,0.17574 0.22784,0.267624 0.0759,0.09182 0.15192,0.186131 0.22785,0.283588 0.076,0.09741 0.15196,0.197297 0.22795,0.300352 0.0759,0.102286 0.15192,0.207688 0.22793,0.315515 0.0759,0.107892 0.15194,0.218861 0.22794,0.331489 0.0759,0.112635 0.15196,0.228439 0.228,0.346651 0.076,0.117414 0.15203,0.238007 0.22799,0.361022 0.076,0.122163 0.15205,0.247582 0.22803,0.375375 0.076,0.126949 0.15208,0.25717 0.2281,0.388951 0.0762,0.132587 0.15205,0.266753 0.22809,0.403316 0.076,0.136573 0.15205,0.27554 0.22808,0.416088 0.0761,0.140577 0.15206,0.283515 0.22816,0.428864 0.076,0.144558 0.15205,0.292302 0.22812,0.440839 0.076,0.149347 0.15216,0.30028 0.22817,0.45281 0.076,0.153331 0.15218,0.308253 0.2282,0.464784 0.076,0.156518 0.15217,0.314646 0.22828,0.475162 0.0759,0.159709 0.15212,0.321821 0.2282,0.484731 0.076,0.163699 0.15215,0.329005 0.22825,0.495903 0.0761,0.166102 0.15214,0.334612 0.22825,0.504696 0.0762,0.169303 0.15223,0.340992 0.22829,0.51347 0.0761,0.172495 0.15225,0.346575 0.22829,0.521463 0.076,0.175661 0.15225,0.352149 0.22837,0.529432 0.0762,0.178068 0.15219,0.356943 0.22831,0.537407 0.0762,0.179688 0.15221,0.360945 0.22833,0.543016 0.0761,0.182856 0.1522,0.365721 0.22833,0.550186 0.0762,0.183668 0.15223,0.368921 0.22837,0.554977 0.0762,0.186059 0.15228,0.372905 0.22833,0.559766 0.076,0.187646 0.15231,0.376103 0.22845,0.565348 0.0762,0.188471 0.15222,0.37771 0.22837,0.567755 0.076,0.190038 0.15223,0.380891 0.22839,0.571741 0.0761,0.191652 0.15221,0.382484 0.22838,0.574929 0.0761,0.191649 0.15225,0.383289 0.22839,0.575726 0.0761,0.192437 0.1523,0.385683 0.22839,0.578136 0.0761,0.193242 0.1523,0.385672 0.22839,0.578917 0.076,0.193233 0.15231,0.385683 0.22845,0.578923 0.076,0.193226 0.15226,0.385685 0.22839,0.578927 0.0761,0.192435 0.15223,0.385684 0.22839,0.578124 0.076,0.192438 0.15225,0.384082 0.22839,0.576532 0.0761,0.191641 0.15229,0.383287 0.2284,0.574128 0.076,0.190847 0.15229,0.381692 0.22835,0.571737 0.0761,0.190044 0.1523,0.379303 0.22846,0.568547 0.0762,0.188471 0.15222,0.376908 0.22837,0.564557 0.0762,0.186864 0.15221,0.373721 0.22834,0.559765 0.0762,0.186068 0.15224,0.371329 0.22837,0.554977 0.0759,0.184462 0.15219,0.368129 0.22834,0.55019 0.0761,0.18206 0.15224,0.363334 0.22831,0.543012 0.0761,0.180477 0.15226,0.359335 0.22834,0.537425 0.0761,0.17728 0.15224,0.353744 0.22834,0.529426 0.0762,0.17489 0.15219,0.348972 0.22831,0.521452 0.076,0.172485 0.15214,0.344177 0.22827,0.513471 0.0761,0.17009 0.15217,0.338589 0.22826,0.504697 0.076,0.166891 0.15219,0.332196 0.22824,0.495902 0.0761,0.162906 0.1522,0.325015 0.22823,0.485537 0.076,0.15972 0.15218,0.317842 0.22826,0.474355 0.076,0.157313 0.15211,0.311453 0.22819,0.464781 0.0759,0.152533 0.15209,0.303478 0.22816,0.452819 0.076,0.148532 0.15209,0.296282 0.22815,0.440834 0.0761,0.14537 0.15207,0.288304 0.22813,0.428858 0.0761,0.140574 0.15213,0.279524 0.2281,0.416094 0.076,0.13657 0.15211,0.270745 0.2281,0.403327 0.076,0.131781 0.15209,0.26196 0.22808,0.388938 0.076,0.1278 0.15201,0.253195 0.22804,0.375401 0.076,0.122998 0.152,0.243594 0.228,0.361009 0.0762,0.118229 0.15197,0.234036 0.22799,0.346648 0.076,0.11265 0.15201,0.223639 0.22795,0.33149 0.0758,0.107877 0.15198,0.213266 0.22793,0.315521 0.0761,0.103034 0.15198,0.202878 0.22795,0.300347 0.076,0.09741 0.15188,0.191719 0.22786,0.28359 0.076,0.09178 0.15187,0.18132 0.22783,0.267626 0.076,0.08705 0.15184,0.170157 0.2278,0.250848 0.076,0.08149 0.15184,0.15901 0.22778,0.234107 0.0759,0.07511 0.15188,0.147826 0.22776,0.21735 0.076,0.06866 0.15185,0.135876 0.22778,0.19897 0.0759,0.06407 0.15176,0.123912 0.22767,0.182233 0.0759,0.05757 0.15175,0.11196 0.22765,0.163856 0.076,0.05105 0.15175,0.09995 0.22763,0.14552 0.0757,0.04566 0.1517,0.0887 0.22757,0.128015 0.0756,0.03925 0.15176,0.07589 0.22744,0.1095 0.0762,0.03353 0.15187,0.06387 0.22747,0.09124 0.0764,0.02722 0.15186,0.05106 0.22742,0.0721 0.0763,0.02072 0.15181,0.03925 0.22801,0.05366 0.0754,0.01564 0.15123,0.02616 0.2273,0.03577 0.0756,0.0096 0.15115,0.01409 0.22734,0.01616 0.0754,0.0037 0.15178,0.0014 0.22728,-0.0019 0.0755,-0.004 0.15174,-0.0106 0.22727,-0.02118 0.0756,-0.01028 0.1517,-0.0236 0.22723,-0.04029 0.0761,-0.01602 0.15167,-0.03582 0.22718,-0.05792 0.0762,-0.02313 0.15165,-0.04932 0.22719,-0.07803 0.076,-0.02863 0.15162,-0.06134 0.22774,-0.09637 0.0754,-0.03501 0.15099,-0.07322 0.22708,-0.114703 0.0755,-0.04141 0.15097,-0.08603 0.22705,-0.133058 0.0754,-0.04781 0.15093,-0.09804 0.22704,-0.152225 0.0756,-0.05333 0.15154,-0.11 0.22699,-0.169789 0.0755,-0.05983 0.15157,-0.121953 0.22694,-0.188126 0.0755,-0.06534 0.15152,-0.133951 0.22696,-0.205711 0.076,-0.07177 0.15145,-0.145921 0.22688,-0.22325 0.0761,-0.07812 0.15147,-0.157872 0.22688,-0.241614 0.0761,-0.08283 0.15143,-0.169067 0.22743,-0.258435 0.0754,-0.08939 0.15081,-0.180987 0.22682,-0.275923 0.0754,-0.09409 0.15074,-0.191394 0.22675,-0.29191 0.0754,-0.100478 0.15137,-0.203408 0.22681,-0.308646 0.0753,-0.106089 0.15139,-0.214545 0.22668,-0.325448 0.0754,-0.110847 0.15135,-0.22494 0.22673,-0.341358 0.0755,-0.115655 0.15134,-0.234526 0.22665,-0.356569 0.076,-0.121284 0.15129,-0.244911 0.22663,-0.37172 0.076,-0.126056 0.15126,-0.25531 0.22663,-0.386886 0.076,-0.131664 0.15129,-0.264838 0.22719,-0.401292 0.0753,-0.136426 0.15061,-0.274423 0.22654,-0.415645 0.0753,-0.140381 0.15057,-0.284002 0.22653,-0.429202 0.0753,-0.145186 0.15121,-0.292766 0.22654,-0.442733 0.0754,-0.149955 0.15121,-0.301576 0.22648,-0.455544 0.0752,-0.153973 0.15119,-0.310358 0.22649,-0.46828 0.0758,-0.158008 0.15119,-0.317531 0.22645,-0.479487 0.076,-0.161987 0.15117,-0.326304 0.22637,-0.492267 0.0762,-0.164986 0.15117,-0.333492 0.22699,-0.50268 0.0757,-0.168967 0.15052,-0.340651 0.22639,-0.513001 0.0751,-0.17321 0.1505,-0.347834 0.22635,-0.523397 0.0753,-0.176284 0.15015,-0.354384 0.2263,-0.533776 0.075,-0.178791 0.15122,-0.359792 0.2263,-0.541761 0.0754,-0.182564 0.15149,-0.366023 0.22597,-0.551489 0.0753,-0.184341 0.15127,-0.370934 0.22655,-0.558372 0.0755,-0.187725 0.15124,-0.37652 0.22642,-0.566411 0.0759,-0.189928 0.15102,-0.381407 0.22628,-0.572866 0.0758,-0.192316 0.15077,-0.386332 0.22647,-0.580306 0.0755,-0.19369 0.15078,-0.389153 0.22637,-0.585583 0.0755,-0.196147 0.15026,-0.393402 0.22613,-0.590489 0.0751,-0.197939 0.15146,-0.396343 0.22614,-0.596062 0.0754,-0.198594 0.15132,-0.398802 0.2262,-0.599225 0.0753,-0.201051 0.15049,-0.402377 0.22623,-0.603189 0.0755,-0.201721 0.15109,-0.403705 0.22622,-0.606402 0.0759,-0.202672 0.15073,-0.405491 0.22625,-0.608766 0.0759,-0.202674 0.15093,-0.406169 0.22623,-0.610367 0.0762,-0.203301 0.15123,-0.406832 0.22679,-0.611234 0.0751,-0.203502 0.15034,-0.407693 0.22622,-0.611979" />
    <ellipse
       style="fill:none;stroke:#000000;stroke-width:1.5;stroke-linecap:square;stroke-dasharray:none"
       id="path4744"
       cx="121.21084"
       cy="65.95961"
       rx="1.6159672"
       ry="1.6159668"
       transform="rotate(7.9502886)" />
    <ellipse
       style="fill:none;fill-opacity:1;stroke:#000000;stroke-width:1.5;stroke-linecap:square;stroke-dasharray:none"
       id="path4744-8"
       cx="166.2019"
       cy="52.135654"
       rx="1.6159672"
       ry="1.6159668"
       transform="rotate(7.9502886)" />
  </g>
</svg>
